PathFileType	4	(X/Y/Z)	Run_400 05
DataRate	CameraRate	NumFrames	NumMarkers	Units	OrigDataRate	OrigDataStartFrame	OrigNumFrames
120	120	4	42	mm	120	1	128
Frame#	Time	LASI			RASI			LPSI			RPSI			RTH1			RTH2			RTH3			LTH1			LTH2			LTH3			RTB1			RTB2			RTB3			LTB1			LTB2			LTB3			RCAL			RTOE			RMT5			LCAL			LTOE			LMT5			LACR			RACR			CLAV			C7			RUA1			RUA2			RUA3			RLEL			RMEL			LUA1			LUA2			LUA3			LLEL			LMEL			RFAsuperior			RFAradius			RFAulna			LFAsuperior			LFAradius			LFAulna		
		X1	Y1	Z1	X2	Y2	Z2	X3	Y3	Z3	X4	Y4	Z4	X5	Y5	Z5	X6	Y6	Z6	X7	Y7	Z7	X8	Y8	Z8	X9	Y9	Z9	X10	Y10	Z10	X11	Y11	Z11	X12	Y12	Z12	X13	Y13	Z13	X14	Y14	Z14	X15	Y15	Z15	X16	Y16	Z16	X17	Y17	Z17	X18	Y18	Z18	X19	Y19	Z19	X20	Y20	Z20	X21	Y21	Z21	X22	Y22	Z22	X23	Y23	Z23	X24	Y24	Z24	X25	Y25	Z25	X26	Y26	Z26	X27	Y27	Z27	X28	Y28	Z28	X29	Y29	Z29	X30	Y30	Z30	X31	Y31	Z31	X32	Y32	Z32	X33	Y33	Z33	X34	Y34	Z34	X35	Y35	Z35	X36	Y36	Z36	X37	Y37	Z37	X38	Y38	Z38	X39	Y39	Z39	X40	Y40	Z40	X41	Y41	Z41	X42	Y42	Z42	

1	  0.008333	966.480391	1062.781172	-446.398093	979.289517	1081.406527	-192.642295	793.768394	1115.761866	-344.759380	797.981925	1115.019402	-259.351886	973.054877	930.194182	-131.996709	1082.729419	871.191190	-144.055581	1088.114479	744.045153	-173.997796	821.082011	870.471656	-485.565216	819.513226	739.334869	-468.656216	708.498844	664.411823	-440.412293	1206.280422	507.696587	-261.068088	1154.335171	453.083750	-196.608254	1133.156060	357.317548	-269.118906	634.625779	432.783809	-375.544449	549.766266	385.412589	-417.940029	502.569530	281.810900	-347.559839	972.450652	247.565099	-295.600771	1189.747515	160.379765	-295.048545	1108.403167	146.544414	-213.289653	343.566337	256.549160	-319.346123	478.807460	 68.804378	-294.887037	405.625606	 92.700994	-379.786758	1014.701951	1553.505071	-464.480119	942.039029	1561.498834	-133.658943	1020.138333	1500.731556	-251.550774	901.792940	1580.110148	-316.030888	859.282481	1507.941798	-66.018288	809.253666	1430.906021	-74.185604	742.628542	1475.860194	-85.514155	629.630437	1385.506386	-59.074847	632.462072	1380.720404	-142.542963	1016.098371	1462.125638	-539.992692	1026.251223	1390.367585	-530.478140	934.966834	1373.618795	-561.984056	956.539266	1212.024164	-613.901208	891.153147	1197.290927	-552.587176	703.997206	1313.014053	-36.956654	841.344246	1203.684633	-89.572298	799.017435	1174.168216	-38.337239	1039.709652	1234.826800	-561.775613	1119.138301	1294.806568	-411.922805	1154.153098	1232.827848	-427.935301	
2	  0.016667	971.284688	1065.914521	-447.566361	980.556057	1085.651874	-193.098998	798.653844	1120.612365	-347.680287	800.837720	1119.353899	-261.651954	972.386135	932.086109	-132.440098	1081.064375	870.265954	-143.644751	1084.580437	743.127107	-176.376303	819.631297	877.220271	-486.859500	813.477629	745.938390	-469.225390	701.026507	675.758423	-437.986414	1214.513326	505.147820	-260.703784	1168.264713	445.812698	-196.712003	1155.945436	348.747575	-269.653719	622.509570	444.891213	-374.472085	537.420939	398.706135	-417.413808	489.790516	293.558293	-348.220473	1006.280821	224.877628	-296.112114	1230.587534	158.757731	-298.941211	1152.148290	136.447939	-216.970080	336.803700	275.012176	-321.712854	454.237612	 75.948649	-297.218781	383.055896	105.994771	-380.869713	1015.319528	1559.164822	-461.722765	940.305541	1566.158933	-133.460749	1019.144159	1505.156894	-249.816529	901.753542	1583.781735	-315.289646	856.359286	1515.171224	-67.098513	806.212081	1438.265858	-74.533711	740.645390	1482.979034	-90.584139	626.482533	1392.906783	-63.166508	631.795878	1386.763617	-146.262403	1016.879702	1469.068892	-538.402839	1027.012610	1397.353603	-529.277215	935.818280	1380.472382	-560.801693	957.170104	1218.233927	-612.367335	891.511594	1204.074288	-551.678898	700.189898	1321.191799	-38.804703	839.675630	1210.994947	-87.190968	795.786120	1181.092545	-37.726438	1039.642612	1241.264389	-559.209377	1117.224665	1301.849778	-408.518523	1152.996680	1239.751386	-424.116318	
3	  0.025000	975.560420	1068.774015	-448.433246	981.737702	1088.965811	-193.542680	802.872216	1125.122579	-350.267544	803.611209	1122.929800	-263.959637	971.298971	932.648094	-133.057756	1079.259450	868.713275	-143.515577	1080.753098	741.406869	-178.246818	818.427698	883.526506	-487.924626	808.315229	752.143231	-469.960136	694.757001	685.846730	-435.694819	1221.570366	501.939549	-260.219923	1181.156495	438.294903	-196.779268	1177.829430	340.449042	-269.934711	611.591309	455.833919	-373.269286	526.115584	411.055161	-416.698852	476.981247	305.475059	-348.371745	1040.153336	202.850960	-296.446794	1269.974999	159.061321	-302.818526	1195.236475	128.247283	-220.387275	328.536652	293.200054	-322.872524	430.748642	 84.855673	-299.655910	361.270707	120.492477	-381.972004	1015.890472	1564.291751	-459.005703	938.614973	1570.294068	-133.203341	1018.266934	1509.042403	-248.168398	901.716530	1587.020997	-314.482689	853.772025	1521.455127	-68.314041	803.605581	1444.669619	-74.736646	738.910833	1488.901940	-95.055893	623.942751	1398.799222	-66.432239	631.235602	1391.362846	-149.135529	1017.456205	1475.525062	-536.869606	1027.617039	1403.748346	-528.152957	936.536948	1386.883862	-559.780721	957.507257	1224.007769	-611.039975	891.314771	1210.416004	-550.887397	697.224300	1327.959567	-40.114458	838.899390	1217.386601	-84.700197	793.646364	1187.040909	-36.842013	1039.328935	1247.070525	-556.853493	1115.290798	1308.158531	-405.374851	1151.562384	1245.878161	-420.590245	
4	  0.033333	979.054593	1071.186070	-448.869607	982.800837	1090.814732	-193.885082	806.165513	1129.017891	-352.343023	806.176136	1125.308486	-266.173976	969.657055	931.370054	-133.958946	1077.189488	866.242078	-143.675538	1076.372130	738.454942	-179.405710	817.748557	888.971694	-488.657068	804.775904	757.505941	-470.825453	690.572041	693.759804	-433.824976	1226.681489	497.718800	-259.688026	1192.264606	430.478365	-196.785650	1198.035452	332.661228	-269.934319	602.578404	464.902952	-372.026868	516.343488	422.057258	-415.776728	464.210046	317.655060	-347.832505	1073.802472	182.141953	-296.477687	1306.758635	162.314632	-306.323099	1236.803466	123.131658	-223.283708	317.930332	311.038179	-322.142142	408.995969	 96.463670	-302.152956	340.720441	136.821744	-382.998391	1016.393349	1568.545990	-456.459014	937.043686	1573.491038	-132.857202	1017.598063	1512.066916	-246.643416	901.677090	1589.546239	-313.585360	851.745914	1526.090139	-69.606778	801.715353	1449.430443	-74.667926	737.588508	1492.854025	-98.459371	622.375971	1402.236710	-68.338191	630.884122	1393.645381	-150.648728	1017.748588	1481.110192	-535.433957	1027.986259	1409.132091	-527.140456	937.035307	1392.515560	-558.957936	957.361770	1229.043165	-610.011817	890.326199	1216.029965	-550.311390	695.647055	1332.427750	-40.536158	839.559006	1222.268189	-82.027693	793.289022	1191.408884	-35.463902	1038.603741	1251.842878	-554.813511	1113.315525	1313.229882	-402.697284	1149.661780	1250.662309	-417.538341	
